<svg id="visual" viewBox="0 0 1290 408" width="1290" height="408" xmlns="http://www.w3.org/2000/svg" xmlns:xlink="http://www.w3.org/1999/xlink" version="1.1"><rect x="0" y="0" width="1290" height="408" fill="#edf2fc"></rect><defs><linearGradient id="grad1_0" x1="68.4%" y1="100%" x2="100%" y2="0%"><stop offset="-13.235294117647058%" stop-color="#117fc7" stop-opacity="1"></stop><stop offset="113.23529411764704%" stop-color="#117fc7" stop-opacity="1"></stop></linearGradient></defs><defs><linearGradient id="grad1_1" x1="68.4%" y1="100%" x2="100%" y2="0%"><stop offset="-13.235294117647058%" stop-color="#117fc7" stop-opacity="1"></stop><stop offset="113.23529411764704%" stop-color="#4c8ecf" stop-opacity="1"></stop></linearGradient></defs><defs><linearGradient id="grad1_2" x1="68.4%" y1="100%" x2="100%" y2="0%"><stop offset="-13.235294117647058%" stop-color="#6e9ed6" stop-opacity="1"></stop><stop offset="113.23529411764704%" stop-color="#4c8ecf" stop-opacity="1"></stop></linearGradient></defs><defs><linearGradient id="grad1_3" x1="68.4%" y1="100%" x2="100%" y2="0%"><stop offset="-13.235294117647058%" stop-color="#6e9ed6" stop-opacity="1"></stop><stop offset="113.23529411764704%" stop-color="#8aaede" stop-opacity="1"></stop></linearGradient></defs><defs><linearGradient id="grad1_4" x1="68.4%" y1="100%" x2="100%" y2="0%"><stop offset="-13.235294117647058%" stop-color="#a4bee6" stop-opacity="1"></stop><stop offset="113.23529411764704%" stop-color="#8aaede" stop-opacity="1"></stop></linearGradient></defs><defs><linearGradient id="grad1_5" x1="68.4%" y1="100%" x2="100%" y2="0%"><stop offset="-13.235294117647058%" stop-color="#a4bee6" stop-opacity="1"></stop><stop offset="113.23529411764704%" stop-color="#bdcfed" stop-opacity="1"></stop></linearGradient></defs><defs><linearGradient id="grad1_6" x1="68.4%" y1="100%" x2="100%" y2="0%"><stop offset="-13.235294117647058%" stop-color="#d5e0f5" stop-opacity="1"></stop><stop offset="113.23529411764704%" stop-color="#bdcfed" stop-opacity="1"></stop></linearGradient></defs><defs><linearGradient id="grad1_7" x1="68.4%" y1="100%" x2="100%" y2="0%"><stop offset="-13.235294117647058%" stop-color="#d5e0f5" stop-opacity="1"></stop><stop offset="113.23529411764704%" stop-color="#edf2fc" stop-opacity="1"></stop></linearGradient></defs><defs><linearGradient id="grad2_0" x1="0%" y1="100%" x2="31.6%" y2="0%"><stop offset="-13.235294117647058%" stop-color="#117fc7" stop-opacity="1"></stop><stop offset="113.23529411764704%" stop-color="#117fc7" stop-opacity="1"></stop></linearGradient></defs><defs><linearGradient id="grad2_1" x1="0%" y1="100%" x2="31.6%" y2="0%"><stop offset="-13.235294117647058%" stop-color="#4c8ecf" stop-opacity="1"></stop><stop offset="113.23529411764704%" stop-color="#117fc7" stop-opacity="1"></stop></linearGradient></defs><defs><linearGradient id="grad2_2" x1="0%" y1="100%" x2="31.6%" y2="0%"><stop offset="-13.235294117647058%" stop-color="#4c8ecf" stop-opacity="1"></stop><stop offset="113.23529411764704%" stop-color="#6e9ed6" stop-opacity="1"></stop></linearGradient></defs><defs><linearGradient id="grad2_3" x1="0%" y1="100%" x2="31.6%" y2="0%"><stop offset="-13.235294117647058%" stop-color="#8aaede" stop-opacity="1"></stop><stop offset="113.23529411764704%" stop-color="#6e9ed6" stop-opacity="1"></stop></linearGradient></defs><defs><linearGradient id="grad2_4" x1="0%" y1="100%" x2="31.6%" y2="0%"><stop offset="-13.235294117647058%" stop-color="#8aaede" stop-opacity="1"></stop><stop offset="113.23529411764704%" stop-color="#a4bee6" stop-opacity="1"></stop></linearGradient></defs><defs><linearGradient id="grad2_5" x1="0%" y1="100%" x2="31.6%" y2="0%"><stop offset="-13.235294117647058%" stop-color="#bdcfed" stop-opacity="1"></stop><stop offset="113.23529411764704%" stop-color="#a4bee6" stop-opacity="1"></stop></linearGradient></defs><defs><linearGradient id="grad2_6" x1="0%" y1="100%" x2="31.6%" y2="0%"><stop offset="-13.235294117647058%" stop-color="#bdcfed" stop-opacity="1"></stop><stop offset="113.23529411764704%" stop-color="#d5e0f5" stop-opacity="1"></stop></linearGradient></defs><defs><linearGradient id="grad2_7" x1="0%" y1="100%" x2="31.6%" y2="0%"><stop offset="-13.235294117647058%" stop-color="#edf2fc" stop-opacity="1"></stop><stop offset="113.23529411764704%" stop-color="#d5e0f5" stop-opacity="1"></stop></linearGradient></defs><g transform="translate(1290, 408)"><path d="M-244.8 0C-242.2 -26.1 -239.7 -52.2 -228.3 -74.2C-216.8 -96.1 -196.5 -113.9 -178.8 -129.9C-161 -145.9 -145.8 -160 -129.9 -178.8C-114 -197.6 -97.4 -221 -75.6 -232.8C-53.9 -244.6 -26.9 -244.7 0 -244.8L0 0Z" fill="#e1e9f8"></path><path d="M-214.2 0C-212 -22.8 -209.7 -45.7 -199.7 -64.9C-189.7 -84.1 -172 -99.7 -156.4 -113.7C-140.9 -127.6 -127.6 -140 -113.7 -156.4C-99.7 -172.9 -85.2 -193.4 -66.2 -203.7C-47.1 -214 -23.6 -214.1 0 -214.2L0 0Z" fill="#c9d8f1"></path><path d="M-183.6 0C-181.7 -19.6 -179.8 -39.2 -171.2 -55.6C-162.6 -72.1 -147.4 -85.4 -134.1 -97.4C-120.8 -109.4 -109.4 -120 -97.4 -134.1C-85.5 -148.2 -73.1 -165.8 -56.7 -174.6C-40.4 -183.4 -20.2 -183.5 0 -183.6L0 0Z" fill="#b1c7e9"></path><path d="M-153 0C-151.4 -16.3 -149.8 -32.6 -142.7 -46.4C-135.5 -60.1 -122.8 -71.2 -111.7 -81.2C-100.6 -91.2 -91.1 -100 -81.2 -111.7C-71.2 -123.5 -60.9 -138.2 -47.3 -145.5C-33.7 -152.9 -16.8 -152.9 0 -153L0 0Z" fill="#98b6e2"></path><path d="M-122.4 0C-121.1 -13.1 -119.8 -26.1 -114.1 -37.1C-108.4 -48.1 -98.3 -57 -89.4 -65C-80.5 -72.9 -72.9 -80 -65 -89.4C-57 -98.8 -48.7 -110.5 -37.8 -116.4C-26.9 -122.3 -13.5 -122.3 0 -122.4L0 0Z" fill="#7ca6da"></path><path d="M-91.8 0C-90.8 -9.8 -89.9 -19.6 -85.6 -27.8C-81.3 -36 -73.7 -42.7 -67 -48.7C-60.4 -54.7 -54.7 -60 -48.7 -67C-42.7 -74.1 -36.5 -82.9 -28.4 -87.3C-20.2 -91.7 -10.1 -91.8 0 -91.8L0 0Z" fill="#5e96d3"></path><path d="M-61.2 0C-60.6 -6.5 -59.9 -13.1 -57.1 -18.5C-54.2 -24 -49.1 -28.5 -44.7 -32.5C-40.3 -36.5 -36.5 -40 -32.5 -44.7C-28.5 -49.4 -24.4 -55.3 -18.9 -58.2C-13.5 -61.1 -6.7 -61.2 0 -61.2L0 0Z" fill="#3687cb"></path><path d="M-30.6 0C-30.3 -3.3 -30 -6.5 -28.5 -9.3C-27.1 -12 -24.6 -14.2 -22.3 -16.2C-20.1 -18.2 -18.2 -20 -16.2 -22.3C-14.2 -24.7 -12.2 -27.6 -9.5 -29.1C-6.7 -30.6 -3.4 -30.6 0 -30.6L0 0Z" fill="#117fc7"></path></g><g transform="translate(0, 0)"><path d="M244.8 0C239.9 26 234.9 52 222.5 72.3C210.2 92.6 190.4 107.2 178 129.3C165.6 151.5 160.6 181.2 143.9 198C127.2 214.9 98.9 218.8 72.9 224.4C47 230.1 23.5 237.4 0 244.8L0 0Z" fill="#e1e9f8"></path><path d="M214.2 0C209.9 22.8 205.6 45.5 194.7 63.3C183.9 81 166.6 93.8 155.7 113.1C144.9 132.5 140.5 158.6 125.9 173.3C111.3 188 86.5 191.5 63.8 196.4C41.1 201.3 20.6 207.8 0 214.2L0 0Z" fill="#c9d8f1"></path><path d="M183.6 0C179.9 19.5 176.2 39 166.9 54.2C157.6 69.4 142.8 80.4 133.5 97C124.2 113.6 120.4 135.9 107.9 148.5C95.4 161.2 74.1 164.1 54.7 168.3C35.3 172.6 17.6 178.1 0 183.6L0 0Z" fill="#b1c7e9"></path><path d="M153 0C149.9 16.3 146.8 32.5 139.1 45.2C131.4 57.9 119 67 111.2 80.8C103.5 94.7 100.4 113.3 89.9 123.8C79.5 134.3 61.8 136.8 45.6 140.3C29.4 143.8 14.7 148.4 0 153L0 0Z" fill="#98b6e2"></path><path d="M122.4 0C119.9 13 117.5 26 111.3 36.2C105.1 46.3 95.2 53.6 89 64.7C82.8 75.7 80.3 90.6 71.9 99C63.6 107.4 49.4 109.4 36.5 112.2C23.5 115 11.8 118.7 0 122.4L0 0Z" fill="#7ca6da"></path><path d="M91.8 0C89.9 9.8 88.1 19.5 83.5 27.1C78.8 34.7 71.4 40.2 66.7 48.5C62.1 56.8 60.2 68 54 74.3C47.7 80.6 37.1 82.1 27.3 84.2C17.6 86.3 8.8 89 0 91.8L0 0Z" fill="#5e96d3"></path><path d="M61.2 0C60 6.5 58.7 13 55.6 18.1C52.5 23.1 47.6 26.8 44.5 32.3C41.4 37.9 40.1 45.3 36 49.5C31.8 53.7 24.7 54.7 18.2 56.1C11.8 57.5 5.9 59.4 0 61.2L0 0Z" fill="#3687cb"></path><path d="M30.6 0C30 3.3 29.4 6.5 27.8 9C26.3 11.6 23.8 13.4 22.2 16.2C20.7 18.9 20.1 22.7 18 24.8C15.9 26.9 12.4 27.4 9.1 28.1C5.9 28.8 2.9 29.7 0 30.6L0 0Z" fill="#117fc7"></path></g></svg>