<svg width="200" height="180" viewBox="0 0 255 217" fill="none" xmlns="http://www.w3.org/2000/svg">
<circle cx="2.5" cy="2.5" r="2.5" fill="#019de0 "/>
<circle cx="34.5" cy="2.5" r="2.5" fill="#019de0 "/>
<circle cx="65.5" cy="2.5" r="2.5" fill="#019de0 "/>
<circle cx="96.5" cy="2.5" r="2.5" fill="#019de0 "/>
<circle cx="127.5" cy="2.5" r="2.5" fill="#019de0 "/>
<circle cx="158.5" cy="2.5" r="2.5" fill="#019de0 "/>
<circle cx="189.5" cy="2.5" r="2.5" fill="#019de0 "/>
<circle cx="2.5" cy="32.5" r="2.5" fill="#019de0 "/>
<circle cx="34.5" cy="32.5" r="2.5" fill="#019de0 "/>
<circle cx="65.5" cy="32.5" r="2.5" fill="#019de0 "/>
<circle cx="96.5" cy="32.5" r="2.5" fill="#019de0 "/>
<circle cx="127.5" cy="32.5" r="2.5" fill="#019de0 "/>
<circle cx="158.5" cy="32.5" r="2.5" fill="#019de0 "/>
<circle cx="189.5" cy="32.5" r="2.5" fill="#019de0 "/>
<circle cx="2.5" cy="62.5" r="2.5" fill="#019de0 "/>
<circle cx="34.5" cy="62.5" r="2.5" fill="#019de0 "/>
<circle cx="65.5" cy="62.5" r="2.5" fill="#019de0 "/>
<circle cx="96.5" cy="62.5" r="2.5" fill="#019de0 "/>
<circle cx="127.5" cy="62.5" r="2.5" fill="#019de0 "/>
<circle cx="158.5" cy="62.5" r="2.5" fill="#019de0 "/>
<circle cx="189.5" cy="62.5" r="2.5" fill="#019de0 "/>
<circle cx="2.5" cy="92.5" r="2.5" fill="#019de0 "/>
<circle cx="34.5" cy="92.5" r="2.5" fill="#019de0 "/>
<circle cx="65.5" cy="92.5" r="2.5" fill="#019de0 "/>
<circle cx="96.5" cy="92.5" r="2.5" fill="#019de0 "/>
<circle cx="127.5" cy="92.5" r="2.5" fill="#019de0 "/>
<circle cx="158.5" cy="92.5" r="2.5" fill="#019de0 "/>
<circle cx="189.5" cy="92.5" r="2.5" fill="#019de0 "/>
<circle cx="2.5" cy="122.5" r="2.5" fill="#019de0 "/>
<circle cx="34.5" cy="122.5" r="2.5" fill="#019de0 "/>
<circle cx="65.5" cy="122.5" r="2.5" fill="#019de0 "/>
<circle cx="96.5" cy="122.5" r="2.5" fill="#019de0 "/>
<circle cx="127.5" cy="122.5" r="2.5" fill="#019de0 "/>
<circle cx="158.5" cy="122.5" r="2.5" fill="#019de0 "/>
<circle cx="189.5" cy="122.5" r="2.5" fill="#019de0 "/>
<circle cx="2.5" cy="152.5" r="2.5" fill="#019de0 "/>
<circle cx="34.5" cy="152.5" r="2.5" fill="#019de0 "/>
<circle cx="65.5" cy="152.5" r="2.5" fill="#019de0 "/>
<circle cx="96.5" cy="152.5" r="2.5" fill="#019de0 "/>
<circle cx="127.5" cy="152.5" r="2.5" fill="#019de0 "/>
<circle cx="158.5" cy="152.5" r="2.5" fill="#019de0 "/>
<circle cx="189.5" cy="152.5" r="2.5" fill="#019de0 "/>
</svg>
