<svg width="424" height="441" viewBox="0 0 424 441" fill="none" xmlns="http://www.w3.org/2000/svg">
<path d="M114.579 53.998H-53.5151C-56.5209 53.998 -58.9668 51.368 -58.9668 48.136V-215.138C-58.9668 -218.37 -56.5209 -221 -53.5151 -221H114.579C117.584 -221 120.03 -218.371 120.03 -215.138V48.135C120.03 51.368 117.584 53.998 114.579 53.998ZM-53.5151 -220.75C-56.3935 -220.75 -58.7343 -218.232 -58.7343 -215.138V48.135C-58.7343 51.23 -56.3926 53.747 -53.5151 53.747H114.579C117.457 53.747 119.798 51.229 119.798 48.135V-215.138C119.798 -218.232 117.456 -220.75 114.579 -220.75H-53.5151Z" fill="#F0F0F0"/>
<path d="M166 115.067H-299V115.317H166V115.067Z" fill="#F0F0F0"/>
<path d="M212 440.144C329.084 440.144 424 437.425 424 434.072C424 430.719 329.084 428 212 428C94.9156 428 0 430.719 0 434.072C0 437.425 94.9156 440.144 212 440.144Z" fill="#F0F0F0"/>
<path d="M237.713 378.27V368.771C237.713 368.442 237.445 368.174 237.116 368.174H231.962V366.64H237.116C238.291 366.64 239.247 367.596 239.247 368.77V378.269L237.713 378.27Z" fill="#263238"/>
<path d="M202.057 368.771V378.27H200.523V368.771C200.523 367.596 201.479 366.641 202.653 366.641H207.807V368.175H202.653C202.325 368.174 202.057 368.442 202.057 368.771Z" fill="#263238"/>
<path d="M180.307 382.288V430.213C180.307 432.437 182.117 434.246 184.34 434.246H253.505C255.729 434.246 257.538 432.436 257.538 430.213V382.288C257.538 380.064 255.728 378.27 253.505 378.27H184.34C182.117 378.27 180.307 380.064 180.307 382.288Z" fill="#407BFF"/>
<g opacity="0.3">
<path d="M180.307 382.288V430.213C180.307 432.437 182.117 434.246 184.34 434.246H253.505C255.729 434.246 257.538 432.436 257.538 430.213V382.288C257.538 380.064 255.728 378.27 253.505 378.27H184.34C182.117 378.27 180.307 380.064 180.307 382.288Z" fill="#2E4797"/>
</g>
<path d="M193.526 378.27H190.459V434.246H193.526V378.27Z" fill="#263238"/>
<path d="M247.386 378.27H244.319V434.246H247.386V378.27Z" fill="#263238"/>
<path d="M206.23 369.963H234.09V364.851H206.23V369.963Z" fill="#2E4797"/>
<path d="M291.778 357.95L295.758 358.053L295.432 373.584L303.161 380.328L301.137 391.115L306.706 397.519L299.047 391.183L300.374 381.758L292.382 374.606L291.778 357.95Z" fill="#407BFF"/>
<path opacity="0.6" d="M291.778 357.95L295.758 358.053L295.432 373.584L303.161 380.328L301.137 391.115L306.706 397.519L299.047 391.183L300.374 381.758L292.382 374.606L291.778 357.95Z" fill="black"/>
<path d="M335.181 382.148C335.269 382.553 335.346 382.95 335.415 383.349C338.504 401.281 326.478 418.326 308.546 421.414C306.098 421.836 303.661 421.98 301.281 421.857C298.282 421.708 295.359 421.149 292.587 420.232C290.117 419.411 287.755 418.295 285.556 416.935C284.888 416.515 284.233 416.074 283.594 415.612C280.785 413.565 278.295 411.089 276.238 408.245C275.837 407.691 275.451 407.124 275.08 406.536C272.839 402.985 271.237 398.943 270.481 394.544C270.412 394.145 270.353 393.744 270.302 393.341C268.188 377.776 277.378 363.117 291.779 357.948L292.031 364.984L292.129 367.513L292.382 374.604L294.458 376.464L295.558 377.451L300.253 381.651L300.374 381.756L300.134 383.444L300.055 384.028L299.916 385.008L299.047 391.181L299.933 391.916L301.734 393.399L304.248 395.485L305.668 396.657L306.707 397.518L306.153 396.508L305.449 395.197L304.535 393.514L303.754 392.09L302.838 390.399L303.861 385.91L303.87 385.908L304.186 384.517L304.729 382.129L305.049 380.71L305.789 377.495L298.144 372.219L297.952 372.082L297.349 371.668L297.709 370.691L297.773 370.504L297.836 370.354L299.722 365.257L300.666 362.717L303.153 356C305.464 356.008 307.743 356.27 309.953 356.747C310.729 356.917 311.5 357.115 312.26 357.343C315.585 358.318 318.707 359.809 321.531 361.743C322.155 362.171 322.764 362.612 323.351 363.084C325.462 364.745 327.365 366.656 329.028 368.798C330.732 371.005 332.17 373.448 333.288 376.081C334.099 378.005 334.741 380.034 335.181 382.148Z" fill="#407BFF"/>
<path d="M335.181 382.148C335.269 382.553 335.346 382.95 335.415 383.349C338.504 401.281 326.478 418.326 308.546 421.414C306.098 421.836 303.661 421.98 301.281 421.857C298.282 421.708 295.359 421.149 292.587 420.232C290.117 419.411 287.755 418.295 285.556 416.935C284.888 416.515 284.233 416.074 283.594 415.612C280.785 413.565 278.295 411.089 276.238 408.245C275.837 407.691 275.451 407.124 275.08 406.536C272.839 402.985 271.237 398.943 270.481 394.544C270.412 394.145 270.353 393.744 270.302 393.341C268.188 377.776 277.378 363.117 291.779 357.948L292.031 364.984L292.129 367.513L292.382 374.604L294.458 376.464L295.558 377.451L300.253 381.651L300.374 381.756L300.134 383.444L300.055 384.028L299.916 385.008L299.047 391.181L299.933 391.916L301.734 393.399L304.248 395.485L305.668 396.657L306.707 397.518L306.153 396.508L305.449 395.197L304.535 393.514L303.754 392.09L302.838 390.399L303.861 385.91L303.87 385.908L304.186 384.517L304.729 382.129L305.049 380.71L305.789 377.495L298.144 372.219L297.952 372.082L297.349 371.668L297.709 370.691L297.773 370.504L297.836 370.354L299.722 365.257L300.666 362.717L303.153 356C305.464 356.008 307.743 356.27 309.953 356.747C310.729 356.917 311.5 357.115 312.26 357.343C315.585 358.318 318.707 359.809 321.531 361.743C322.155 362.171 322.764 362.612 323.351 363.084C325.462 364.745 327.365 366.656 329.028 368.798C330.732 371.005 332.17 373.448 333.288 376.081C334.099 378.005 334.741 380.034 335.181 382.148Z" fill="#0793D8"/>
<path opacity="0.6" d="M292.03 364.986L292.128 367.515C282.037 372.276 275.784 383.136 277.23 394.615C277.144 394.219 277.066 393.822 276.998 393.423C274.93 381.387 281.404 369.824 292.03 364.986Z" fill="black"/>
<path opacity="0.6" d="M328.896 384.472C328.966 384.88 329.026 385.281 329.084 385.673C328.939 385.023 328.768 384.378 328.582 383.754C327.723 380.896 326.404 378.266 324.713 375.937C322.991 373.541 320.873 371.469 318.485 369.798C317.878 369.366 317.24 368.959 316.598 368.58C313.6 366.836 310.248 365.673 306.73 365.213C305.866 365.106 304.989 365.029 304.123 365.006C302.667 364.969 301.197 365.044 299.718 365.259L300.662 362.719C314.153 361.531 326.556 370.903 328.896 384.472Z" fill="black"/>
<g opacity="0.3">
<path d="M329.084 385.673C330.822 399.542 321.339 412.507 307.423 414.896C307.105 414.958 306.803 415.007 306.498 415.039L306.489 415.041C306.176 415.083 305.864 415.126 305.548 415.151C305.469 415.167 305.394 415.163 305.315 415.178C304.973 415.208 304.637 415.227 304.302 415.247C304.258 415.256 304.203 415.257 304.157 415.257C303.059 415.315 301.963 415.29 300.884 415.207C300.521 415.177 300.157 415.147 299.799 415.097C299.067 415.01 298.357 414.892 297.65 414.746L297.631 414.741C297.402 414.694 297.173 414.647 296.942 414.591C296.827 414.568 296.702 414.537 296.576 414.497C296.394 414.459 296.209 414.403 296.035 414.355C295.755 414.281 295.473 414.199 295.2 414.114C294.841 414.01 294.486 413.886 294.141 413.761C293.796 413.636 293.44 413.503 293.102 413.368C292.813 413.25 292.533 413.131 292.252 413.002C292.072 412.927 291.891 412.843 291.708 412.751C291.567 412.687 291.425 412.614 291.275 412.551C291.111 412.464 290.939 412.378 290.775 412.291C290.509 412.15 290.244 412.01 289.985 411.858C289.749 411.73 289.522 411.6 289.301 411.45C289.25 411.423 289.199 411.397 289.146 411.361C288.833 411.165 288.509 410.963 288.202 410.748C287.908 410.558 287.62 410.348 287.332 410.138C287.311 410.124 287.3 410.117 287.29 410.11C287.118 409.978 286.946 409.847 286.775 409.724C286.603 409.593 286.438 409.451 286.274 409.317C286.121 409.191 285.958 409.058 285.803 408.923C285.636 408.772 285.462 408.632 285.304 408.479C285.148 408.335 284.991 408.191 284.825 408.041C284.678 407.895 284.53 407.75 284.372 407.598C284.056 407.293 283.754 406.967 283.451 406.632C283.325 406.501 283.205 406.359 283.088 406.226C282.785 405.891 282.506 405.542 282.236 405.191C282.094 405.026 281.961 404.86 281.843 404.681C281.426 404.139 281.041 403.572 280.68 402.992C280.577 402.838 280.482 402.682 280.388 402.527C280.182 402.173 279.977 401.828 279.778 401.463C279.776 401.454 279.762 401.429 279.75 401.413C279.561 401.056 279.371 400.689 279.198 400.32C279.119 400.152 279.03 399.977 278.95 399.8C278.915 399.715 278.88 399.63 278.844 399.537C278.755 399.362 278.682 399.174 278.6 398.989C278.593 398.954 278.579 398.929 278.565 398.904C278.478 398.692 278.391 398.48 278.321 398.264C278.229 398.025 278.136 397.787 278.062 397.544C277.972 397.314 277.897 397.072 277.822 396.83C277.758 396.641 277.702 396.45 277.645 396.25L277.546 395.884C277.494 395.711 277.451 395.536 277.408 395.361C277.349 395.107 277.292 394.861 277.235 394.616C275.788 383.138 282.042 372.277 292.133 367.516L292.386 374.607L294.462 376.467L295.562 377.454L300.257 381.654L300.378 381.759L300.138 383.447L300.059 384.031L299.92 385.011L299.051 391.184L299.937 391.919L301.738 393.402L304.252 395.488L305.672 396.66L306.711 397.521L306.157 396.511L305.453 395.2L304.539 393.517L303.758 392.093L302.842 390.402L303.865 385.913L303.874 385.911L304.19 384.52L304.733 382.132L305.053 380.713L305.793 377.498L298.148 372.222L297.956 372.085L297.353 371.671L297.713 370.694L297.777 370.507L297.84 370.357L299.726 365.26C301.206 365.045 302.676 364.97 304.131 365.007C304.997 365.031 305.874 365.108 306.738 365.214C310.256 365.675 313.608 366.837 316.606 368.581C317.248 368.96 317.886 369.367 318.493 369.799C320.881 371.47 322.998 373.541 324.721 375.938C326.412 378.267 327.731 380.898 328.59 383.755C328.768 384.378 328.939 385.023 329.084 385.673Z" fill="black"/>
</g>
<g opacity="0.6">
<path d="M316.165 390.975L316.163 390.966C314.23 385.888 308.071 386.034 303.867 385.908L303.858 385.91L302.835 390.399L303.751 392.09L304.532 393.514C305.703 393.597 306.639 393.745 307.188 394.115C307.454 394.302 307.629 394.543 307.68 394.853C307.793 395.528 307.388 396.083 306.151 396.507L306.705 397.517L305.666 396.656C305.302 396.764 304.88 396.855 304.401 396.939C301.413 397.457 297.828 397.073 294.997 396.002L293.486 402.034L293.198 403.19C295.744 404.216 299.626 404.615 303.496 404.2C303.551 404.199 303.597 404.199 303.65 404.188L304.108 406.867L304.36 408.303L309.842 407.364L309.093 403.046C314.93 400.965 317.333 396.785 316.608 392.591C316.502 392 316.36 391.459 316.165 390.975ZM300.253 381.653L295.558 377.453C291.704 379.688 290.181 383.12 290.786 386.65L290.827 386.862C290.822 386.881 290.823 386.89 290.834 386.897C291.97 392.634 297.355 393.226 301.734 393.4L299.933 391.918L299.048 391.183L299.917 385.01C299.84 384.897 299.788 384.769 299.76 384.628C299.722 384.388 299.738 384.137 299.831 383.908C299.892 383.749 300 383.6 300.135 383.446L300.375 381.758L300.253 381.653ZM311.849 375.683C309.562 375.001 306.911 374.802 304.256 375.007L304.007 373.589L303.539 370.857L303.389 370.886L298.066 371.794L298.14 372.22L305.785 377.496L305.045 380.711L304.726 382.13C306.634 382.043 308.699 382.337 310.922 383.023L312.532 375.899C312.307 375.823 312.082 375.748 311.849 375.683Z" fill="black"/>
</g>
<path d="M304.184 384.518L303.868 385.909L303.859 385.911L302.836 390.4L303.752 392.091C305.696 392.189 307.101 392.438 307.279 393.448C307.317 393.688 307.296 393.912 307.189 394.116C306.979 394.542 306.435 394.904 305.447 395.198L306.151 396.509L306.705 397.519L305.666 396.658L304.246 395.486L303.99 395.536C301.002 396.054 297.416 395.67 294.595 394.597L292.796 401.785C293.014 401.871 293.242 401.955 293.486 402.036C296.044 402.885 299.658 403.181 303.247 402.784L303.496 404.202L303.957 406.899L304.107 406.87L309.428 405.953L308.689 401.642C314.526 399.561 316.929 395.381 316.204 391.187L316.161 390.966C314.951 384.786 308.716 384.634 304.184 384.518ZM299.347 383.214C299.256 382.654 299.48 382.107 300.253 381.654L295.558 377.454L294.458 376.467C291.119 378.712 289.812 381.936 290.383 385.244C290.489 385.837 290.631 386.378 290.826 386.863C290.821 386.882 290.822 386.891 290.833 386.898C292.322 390.825 296.27 391.66 299.932 391.918L299.046 391.183L299.915 385.01L300.054 384.03C299.975 384 299.901 383.95 299.829 383.909C299.568 383.739 299.396 383.516 299.347 383.214ZM304.008 373.589C303.953 373.59 303.909 373.599 303.854 373.601L303.39 370.887L303.136 369.442L297.833 370.356L297.77 370.506L297.706 370.693L297.949 372.085L298.141 372.222L305.786 377.498L305.046 380.713C306.743 380.722 308.57 381.017 310.51 381.611L311.849 375.685L312.122 374.495C309.741 373.655 306.875 373.388 304.008 373.589Z" fill="#0793D8"/>
<path d="M191.665 98.7741L193.426 91.0211C193.575 90.3641 192.778 89.9151 192.293 90.3831L186.569 95.918C186.569 95.918 188.448 99.0611 191.665 98.7741Z" fill="#407BFF"/>
<g opacity="0.4">
<path d="M191.665 98.7741L193.426 91.0211C193.575 90.3641 192.778 89.9151 192.293 90.3831L186.569 95.918C186.569 95.918 188.448 99.0611 191.665 98.7741Z" fill="white"/>
</g>
<path d="M196.514 113.771L199.833 113.122L201.488 112.799L204.317 112.246C204.978 112.117 205.067 111.206 204.442 110.952L200.828 109.485L197.065 107.957C197.065 107.957 194.951 110.944 196.514 113.771Z" fill="#407BFF"/>
<g opacity="0.4">
<path d="M196.514 113.771L199.833 113.122L201.488 112.799L204.317 112.246C204.978 112.117 205.067 111.206 204.442 110.952L200.828 109.485L197.065 107.957C197.065 107.957 194.951 110.944 196.514 113.771Z" fill="white"/>
</g>
<path d="M171.496 100.173L164.009 97.5001C163.374 97.2731 162.833 98.0121 163.241 98.5491L168.055 104.891C168.055 104.891 171.397 103.401 171.496 100.173Z" fill="#407BFF"/>
<g opacity="0.4">
<path d="M171.496 100.173L164.009 97.5001C163.374 97.2731 162.833 98.0121 163.241 98.5491L168.055 104.891C168.055 104.891 171.397 103.401 171.496 100.173Z" fill="white"/>
</g>
<path d="M195.241 108.665L201.788 104.156C202.343 103.773 202.061 102.903 201.387 102.92L193.427 103.114C193.427 103.114 192.68 106.696 195.241 108.665Z" fill="#407BFF"/>
<path opacity="0.4" d="M195.241 108.665L201.788 104.156C202.343 103.773 202.061 102.903 201.387 102.92L193.427 103.114C193.427 103.114 192.68 106.696 195.241 108.665Z" fill="white"/>
<path d="M173.412 118.946L171.296 126.609C171.116 127.259 171.892 127.744 172.398 127.298L178.37 122.032C178.37 122.032 176.639 118.807 173.412 118.946Z" fill="#407BFF"/>
<g opacity="0.4">
<path d="M173.412 118.946L171.296 126.609C171.116 127.259 171.892 127.744 172.398 127.298L178.37 122.032C178.37 122.032 176.639 118.807 173.412 118.946Z" fill="white"/>
</g>
<path d="M181.351 124.1L185.854 130.652C186.236 131.207 187.107 130.926 187.091 130.252L186.904 122.292C186.904 122.292 183.321 121.541 181.351 124.1Z" fill="#407BFF"/>
<g opacity="0.4">
<path d="M181.351 124.1L185.854 130.652C186.236 131.207 187.107 130.926 187.091 130.252L186.904 122.292C186.904 122.292 183.321 121.541 181.351 124.1Z" fill="white"/>
</g>
<path d="M160.663 112.114L167.214 113.38C167.434 114.198 167.715 114.989 168.067 115.754L164.365 119.386C163.881 119.861 164.312 120.67 164.972 120.538L170.433 119.448C170.899 119.993 171.391 120.494 171.937 120.969C172.737 121.664 173.617 122.288 174.584 122.833C180.185 125.972 186.912 125.242 191.678 121.523C191.801 121.426 191.915 121.33 192.039 121.233C192.206 121.092 192.364 120.952 192.531 120.811L192.593 120.749L193.921 121.092L196.717 121.813C197.368 121.98 197.834 121.197 197.385 120.696L194.94 118.023C194.958 117.997 194.975 117.979 194.993 117.953C195.222 117.61 195.433 117.258 195.635 116.898C199.812 109.441 197.156 100.015 189.708 95.8381C185.892 93.7011 181.557 93.3501 177.679 94.5281L175.111 90.9841C174.715 90.4391 173.845 90.7381 173.88 91.4151L174.109 96.1111C173.696 96.3661 173.291 96.6391 172.895 96.9291C171.207 98.1861 169.747 99.8131 168.648 101.774C167.479 103.849 166.854 106.074 166.705 108.299L160.532 110.823C159.907 111.077 160.003 111.991 160.663 112.114Z" fill="#407BFF"/>
<g opacity="0.5">
<path d="M160.663 112.114L167.214 113.38C167.434 114.198 167.715 114.989 168.067 115.754L164.365 119.386C163.881 119.861 164.312 120.67 164.972 120.538L170.433 119.448C170.899 119.993 171.391 120.494 171.937 120.969C172.737 121.664 173.617 122.288 174.584 122.833C180.185 125.972 186.912 125.242 191.678 121.523C191.801 121.426 191.915 121.33 192.039 121.233C192.206 121.092 192.364 120.952 192.531 120.811L192.593 120.749L193.921 121.092L196.717 121.813C197.368 121.98 197.834 121.197 197.385 120.696L194.94 118.023C194.958 117.997 194.975 117.979 194.993 117.953C195.222 117.61 195.433 117.258 195.635 116.898C199.812 109.441 197.156 100.015 189.708 95.8381C185.892 93.7011 181.557 93.3501 177.679 94.5281L175.111 90.9841C174.715 90.4391 173.845 90.7381 173.88 91.4151L174.109 96.1111C173.696 96.3661 173.291 96.6391 172.895 96.9291C171.207 98.1861 169.747 99.8131 168.648 101.774C167.479 103.849 166.854 106.074 166.705 108.299L160.532 110.823C159.907 111.077 160.003 111.991 160.663 112.114Z" fill="white"/>
</g>
<g opacity="0.5">
<path d="M173.687 104.017C170.947 108.907 172.69 115.092 177.58 117.832C182.47 120.572 188.655 118.829 191.395 113.939C194.135 109.049 192.392 102.864 187.502 100.124C182.612 97.3842 176.427 99.1272 173.687 104.017Z" fill="white"/>
</g>
<g opacity="0.2">
<path d="M184.825 101.953C185.938 101.013 187.74 101.587 189.161 102.775C190.429 103.836 191.226 105.304 191.51 107.78C191.993 111.999 188.769 117.628 184.221 116.984C179.673 116.34 181.2 111.959 184.569 111.391C187.938 110.823 188.198 106.454 185.243 104.269C183.923 103.293 184.159 102.515 184.825 101.953Z" fill="#407BFF"/>
</g>
<g opacity="0.2">
<path d="M181.444 105.013C182.236 104.962 183.033 105.078 183.766 105.384C184.789 105.812 185.861 106.666 185.237 108.312C184.276 110.847 180.705 108.326 179.015 110.241C177.027 112.493 173.395 110.575 174.465 108.113C175.595 105.513 179.684 105.127 181.444 105.013Z" fill="#407BFF"/>
</g>
<g opacity="0.2">
<path d="M176.966 112.201C178.192 112.038 179.415 112.638 179.951 113.753C180.267 114.411 180.344 115.227 179.654 116.075C178.031 118.071 174.935 114.376 175.521 113.063C175.768 112.511 176.361 112.282 176.966 112.201Z" fill="#407BFF"/>
</g>
<g opacity="0.2">
<path d="M181.804 100.082C182.373 100.124 182.915 100.366 183.302 100.785C183.76 101.281 184.07 102.065 183.19 103.104C181.591 104.994 178.882 102.016 179.536 100.849C179.964 100.086 181.082 100.03 181.804 100.082Z" fill="#407BFF"/>
</g>
<g opacity="0.2">
<path d="M177.61 104.947C177.183 105.089 176.716 105.078 176.307 104.89C175.824 104.668 175.36 104.192 175.684 103.169C176.273 101.309 179.148 102.652 179.027 103.7C178.947 104.385 178.151 104.766 177.61 104.947Z" fill="#407BFF"/>
</g>
<path d="M308.246 275.893L310.007 268.14C310.156 267.483 309.359 267.033 308.874 267.502L303.15 273.037C303.15 273.037 305.029 276.179 308.246 275.893Z" fill="#407BFF"/>
<g opacity="0.4">
<path d="M308.246 275.893L310.007 268.14C310.156 267.483 309.359 267.033 308.874 267.502L303.15 273.037C303.15 273.037 305.029 276.179 308.246 275.893Z" fill="white"/>
</g>
<path d="M313.094 290.89L316.413 290.241L318.068 289.918L320.897 289.365C321.558 289.236 321.647 288.325 321.022 288.071L317.408 286.604L313.645 285.076C313.645 285.076 311.531 288.063 313.094 290.89Z" fill="#407BFF"/>
<g opacity="0.4">
<path d="M313.094 290.89L316.413 290.241L318.068 289.918L320.897 289.365C321.558 289.236 321.647 288.325 321.022 288.071L317.408 286.604L313.645 285.076C313.645 285.076 311.531 288.063 313.094 290.89Z" fill="white"/>
</g>
<path d="M288.076 277.292L280.589 274.619C279.954 274.392 279.413 275.131 279.821 275.668L284.635 282.01C284.635 282.01 287.977 280.52 288.076 277.292Z" fill="#407BFF"/>
<g opacity="0.4">
<path d="M288.076 277.292L280.589 274.619C279.954 274.392 279.413 275.131 279.821 275.668L284.635 282.01C284.635 282.01 287.977 280.52 288.076 277.292Z" fill="white"/>
</g>
<path d="M311.821 285.784L318.368 281.275C318.923 280.892 318.641 280.022 317.967 280.038L310.007 280.232C310.007 280.232 309.26 283.815 311.821 285.784Z" fill="#407BFF"/>
<path opacity="0.4" d="M311.821 285.784L318.368 281.275C318.923 280.892 318.641 280.022 317.967 280.038L310.007 280.232C310.007 280.232 309.26 283.815 311.821 285.784Z" fill="white"/>
<path d="M289.993 296.064L287.877 303.727C287.697 304.377 288.473 304.862 288.979 304.416L294.951 299.15C294.951 299.15 293.22 295.926 289.993 296.064Z" fill="#407BFF"/>
<g opacity="0.4">
<path d="M289.993 296.064L287.877 303.727C287.697 304.377 288.473 304.862 288.979 304.416L294.951 299.15C294.951 299.15 293.22 295.926 289.993 296.064Z" fill="white"/>
</g>
<path d="M297.931 301.219L302.434 307.771C302.816 308.326 303.687 308.045 303.671 307.371L303.484 299.411C303.484 299.411 299.902 298.66 297.931 301.219Z" fill="#407BFF"/>
<g opacity="0.4">
<path d="M297.931 301.219L302.434 307.771C302.816 308.326 303.687 308.045 303.671 307.371L303.484 299.411C303.484 299.411 299.902 298.66 297.931 301.219Z" fill="white"/>
</g>
<path d="M277.243 289.233L283.794 290.499C284.014 291.317 284.295 292.108 284.647 292.873L280.945 296.505C280.461 296.98 280.892 297.789 281.552 297.657L287.013 296.567C287.479 297.112 287.971 297.613 288.517 298.088C289.317 298.783 290.197 299.407 291.164 299.952C296.765 303.091 303.492 302.361 308.258 298.642C308.381 298.545 308.495 298.448 308.619 298.352C308.786 298.211 308.944 298.071 309.111 297.93L309.173 297.869L310.501 298.212L313.297 298.933C313.948 299.1 314.414 298.317 313.965 297.816L311.52 295.143C311.538 295.117 311.555 295.099 311.573 295.073C311.802 294.73 312.013 294.378 312.215 294.018C316.392 286.561 313.736 277.135 306.288 272.958C302.472 270.821 298.137 270.47 294.259 271.648L291.691 268.104C291.295 267.559 290.425 267.858 290.46 268.535L290.689 273.231C290.276 273.486 289.871 273.759 289.475 274.049C287.787 275.306 286.327 276.933 285.228 278.894C284.059 280.969 283.434 283.194 283.285 285.419L277.112 287.943C276.487 288.195 276.584 289.11 277.243 289.233Z" fill="#407BFF"/>
<g opacity="0.5">
<path d="M277.243 289.233L283.794 290.499C284.014 291.317 284.295 292.108 284.647 292.873L280.945 296.505C280.461 296.98 280.892 297.789 281.552 297.657L287.013 296.567C287.479 297.112 287.971 297.613 288.517 298.088C289.317 298.783 290.197 299.407 291.164 299.952C296.765 303.091 303.492 302.361 308.258 298.642C308.381 298.545 308.495 298.448 308.619 298.352C308.786 298.211 308.944 298.071 309.111 297.93L309.173 297.869L310.501 298.212L313.297 298.933C313.948 299.1 314.414 298.317 313.965 297.816L311.52 295.143C311.538 295.117 311.555 295.099 311.573 295.073C311.802 294.73 312.013 294.378 312.215 294.018C316.392 286.561 313.736 277.135 306.288 272.958C302.472 270.821 298.137 270.47 294.259 271.648L291.691 268.104C291.295 267.559 290.425 267.858 290.46 268.535L290.689 273.231C290.276 273.486 289.871 273.759 289.475 274.049C287.787 275.306 286.327 276.933 285.228 278.894C284.059 280.969 283.434 283.194 283.285 285.419L277.112 287.943C276.487 288.195 276.584 289.11 277.243 289.233Z" fill="white"/>
</g>
<g opacity="0.5">
<path d="M290.267 281.136C287.527 286.026 289.27 292.211 294.16 294.951C299.05 297.691 305.235 295.948 307.975 291.058C310.715 286.168 308.972 279.983 304.082 277.243C299.192 274.503 293.007 276.246 290.267 281.136Z" fill="white"/>
</g>
<g opacity="0.2">
<path d="M301.405 279.072C302.518 278.132 304.32 278.706 305.741 279.894C307.009 280.955 307.806 282.423 308.09 284.899C308.573 289.118 305.349 294.747 300.801 294.103C296.254 293.459 297.78 289.078 301.149 288.51C304.518 287.942 304.778 283.573 301.823 281.388C300.504 280.412 300.74 279.634 301.405 279.072Z" fill="#407BFF"/>
</g>
<g opacity="0.2">
<path d="M298.024 282.131C298.816 282.08 299.613 282.196 300.346 282.502C301.369 282.93 302.441 283.784 301.817 285.43C300.857 287.965 297.285 285.444 295.595 287.359C293.607 289.611 289.975 287.693 291.045 285.231C292.175 282.631 296.264 282.245 298.024 282.131Z" fill="#407BFF"/>
</g>
<g opacity="0.2">
<path d="M293.547 289.32C294.773 289.157 295.996 289.757 296.532 290.872C296.848 291.53 296.925 292.346 296.235 293.194C294.611 295.19 291.515 291.495 292.102 290.182C292.349 289.63 292.942 289.4 293.547 289.32Z" fill="#407BFF"/>
</g>
<g opacity="0.2">
<path d="M298.384 277.201C298.953 277.243 299.495 277.485 299.882 277.904C300.339 278.4 300.65 279.184 299.77 280.223C298.171 282.113 295.462 279.135 296.116 277.968C296.544 277.204 297.663 277.149 298.384 277.201Z" fill="#407BFF"/>
</g>
<g opacity="0.2">
<path d="M294.191 282.065C293.764 282.207 293.297 282.196 292.888 282.008C292.405 281.786 291.941 281.31 292.265 280.287C292.854 278.426 295.729 279.77 295.608 280.818C295.528 281.504 294.732 281.884 294.191 282.065Z" fill="#407BFF"/>
</g>
<path d="M194.572 321.419L191.394 288.089L183.065 298.678L96.2696 188.32L83.7219 188.586L176.687 306.789L168.358 317.388L194.572 321.419Z" fill="#407BFF"/>
<path opacity="0.7" d="M194.572 321.419L191.394 288.089L183.065 298.678L96.2696 188.32L83.7219 188.586L176.687 306.789L168.358 317.388L194.572 321.419Z" fill="white"/>
<path d="M364 338.82L360.822 305.49L352.494 316.08L263.148 202.48L225.161 250.78L189.477 205.41L178.876 191.93L178.852 191.96L105.537 98.75H92.7861L182.674 213.04L182.729 213.05L225.161 267L263.148 218.7L346.115 324.19L337.786 334.79L364 338.82Z" fill="#407BFF"/>
<path opacity="0.7" d="M364 338.82L360.822 305.49L352.494 316.08L263.148 202.48L225.161 250.78L189.477 205.41L178.876 191.93L178.852 191.96L105.537 98.75H92.7861L182.674 213.04L182.729 213.05L225.161 267L263.148 218.7L346.115 324.19L337.786 334.79L364 338.82Z" fill="white"/>
<path d="M286.368 191.058L289.75 186.758L305.561 206.87L310.047 201.168L311.707 218.61L297.989 216.499L302.218 211.122L286.368 191.058Z" fill="#0793D8"/>
<path d="M162.819 230.976L166.201 226.676L182.014 246.788L186.498 241.085L188.159 258.527L174.441 256.417L178.67 251.04L162.819 230.976Z" fill="#0793D8"/>
<path d="M293.034 305.493L308.846 325.605L313.331 319.902L314.991 337.345L301.273 335.234L305.502 329.857L289.652 309.793L293.034 305.493Z" fill="#0793D8"/>
<path d="M328.93 174.189H224.249C222.302 174.189 220.724 172.611 220.724 170.664V109.27C220.724 107.323 222.302 105.745 224.249 105.745H328.93C330.877 105.745 332.455 107.323 332.455 109.27V170.664C332.454 172.611 330.876 174.189 328.93 174.189Z" fill="#407BFF"/>
<path opacity="0.7" d="M328.93 174.189H224.249C222.302 174.189 220.724 172.611 220.724 170.664V109.27C220.724 107.323 222.302 105.745 224.249 105.745H328.93C330.877 105.745 332.455 107.323 332.455 109.27V170.664C332.454 172.611 330.876 174.189 328.93 174.189Z" fill="white"/>
<path d="M246.987 123.439H237.33V162.864H246.987V123.439Z" fill="#0793D8"/>
<path d="M265.072 129.558H255.415V162.863H265.072V129.558Z" fill="#407BFF"/>
<path d="M265.072 129.558H255.415V162.863H265.072V129.558Z" fill="#407BFF"/>
<path opacity="0.3" d="M265.072 129.558H255.415V162.863H265.072V129.558Z" fill="#0399DD"/>
<path d="M283.156 135.678H273.499V162.864H283.156V135.678Z" fill="#0793D8"/>
<path d="M301.241 141.797H291.584V162.863H301.241V141.797Z" fill="#407BFF"/>
<path opacity="0.3" d="M301.241 141.797H291.584V162.863H301.241V141.797Z" fill="#0399DD"/>
<path d="M319.326 147.917H309.669V162.864H319.326V147.917Z" fill="#0793D8"/>
<path d="M231.286 117.071V162.863H325.028" stroke="#263238" stroke-miterlimit="10"/>
<path d="M312.81 139.786L314.32 137.965L302.927 128.572L296.726 136.105L283.523 125.22L278.594 131.188L265.479 120.377L259.768 127.293L244.779 115.89L244.647 114.522L259.604 125.908L265.342 118.948L278.457 129.77L283.386 123.791L296.59 134.686L302.79 127.153L314.966 137.182L316.285 135.583L317.867 140.416L312.81 139.786Z" fill="#407BFF"/>
<path d="M114.139 138.551C116.345 129.327 110.655 120.06 101.431 117.854C92.2063 115.648 82.94 121.338 80.7339 130.562C78.5279 139.787 84.2174 149.053 93.442 151.259C102.666 153.465 111.933 147.776 114.139 138.551Z" fill="#407BFF"/>
<g opacity="0.7">
<path d="M114.139 138.551C116.345 129.327 110.655 120.06 101.431 117.854C92.2063 115.648 82.94 121.338 80.7339 130.562C78.5279 139.787 84.2174 149.053 93.442 151.259C102.666 153.465 111.933 147.776 114.139 138.551Z" fill="white"/>
</g>
<path d="M94.3479 141.177C94.3479 139.683 95.5289 138.502 97.4089 138.502C99.3119 138.502 100.494 139.682 100.494 141.177C100.494 142.648 99.3129 143.804 97.4089 143.804C95.5289 143.803 94.3479 142.648 94.3479 141.177ZM99.6989 136.839H95.1189L94.4929 125.415H100.325L99.6989 136.839Z" fill="#0793D8"/>
<path d="M97.433 152.086C87.769 152.086 79.907 144.224 79.907 134.56C79.907 124.896 87.769 117.034 97.433 117.034C107.097 117.034 114.959 124.896 114.959 134.56C114.959 144.224 107.097 152.086 97.433 152.086ZM97.433 117.741C88.159 117.741 80.614 125.286 80.614 134.56C80.614 143.834 88.159 151.38 97.433 151.38C106.707 151.38 114.252 143.835 114.252 134.56C114.252 125.285 106.707 117.741 97.433 117.741Z" fill="#407BFF"/>
<path d="M110.09 146.222L116.046 148.131C116.358 148.231 116.63 147.895 116.468 147.61L113.089 141.697C112.122 143.637 111.127 145.19 110.09 146.222Z" fill="#407BFF"/>
<path d="M89.2238 406.615L85.2468 420.943L90.9068 423.011L97.4638 410.382L89.2238 406.615Z" fill="#FF8B7B"/>
<path d="M89.5999 421.195C89.5999 421.195 92.3889 418.207 93.3589 418.878C94.3289 419.549 93.5909 423.908 93.5909 423.908C93.5909 423.908 98.8819 427.478 100.483 428.033C102.084 428.588 103.147 429.878 102.473 433.119L82.5559 427.591C82.5559 427.591 84.6849 420.442 85.0629 419.22C85.4409 417.998 86.7669 420.025 86.7669 420.025L89.5999 421.195Z" fill="#263238"/>
<path d="M146.93 263.29C145.82 267.72 144.76 278.47 143.47 290.99C142.58 299.58 141.59 309 140.4 317.78C138.9 329.02 137.08 339.21 134.77 345.25C126.65 366.54 96.7499 413.55 96.7499 413.55L87.3999 410.95C87.3999 410.95 105.52 359.75 107.52 354C109.52 348.25 117.77 326.5 117.71 303.75C117.65 281 119.03 260 119.03 260L146.93 263.29Z" fill="#263238"/>
<path opacity="0.2" d="M143.47 290.99C142.58 299.58 141.59 309 140.4 317.78C137.71 300.94 136.84 275.91 136.84 275.91L143.47 290.99Z" fill="black"/>
<path d="M86.4949 411.059L97.4709 414.105L99.2479 410.828L87.2229 407.332L86.4949 411.059Z" fill="#2063AF"/>
<path d="M145.329 411.586V426.456L151.336 426.935L154.276 413.012L145.329 411.586Z" fill="#FF8B7B"/>
<path d="M149.591 425.534C149.591 425.534 151.479 421.909 152.594 422.296C153.709 422.683 154.162 427.081 154.162 427.081C154.162 427.081 160.215 429.105 161.906 429.212C163.597 429.319 164.966 430.277 165.183 433.58H144.513C144.513 433.58 144.653 426.122 144.69 424.843C144.727 423.564 146.547 425.163 146.547 425.163L149.591 425.534Z" fill="#263238"/>
<path d="M138.176 261.75C135.853 263.289 137.192 273.43 137.551 277.804C138.227 286.141 143.474 298.533 144.193 309.361C145.032 321.901 145.631 334.457 145.331 343.171C144.561 365.546 144.732 416.252 144.732 416.252H154.438C154.438 416.252 165.839 365.854 167.971 343.171C169.751 324.366 168.27 270.237 167.97 258.527L138.176 261.75Z" fill="#263238"/>
<path d="M143.888 416.597H155.279L156.115 412.964L143.592 412.812L143.888 416.597Z" fill="#2063AF"/>
<path d="M144.53 176.68L136.76 188.32C132.79 185.8 129.21 183.13 125.62 180.09C123.84 178.58 122.09 176.98 120.36 175.18C119.49 174.28 118.62 173.33 117.76 172.24C116.9 171.11 116.02 169.98 115.12 168.04L114.79 167.27L114.75 167.17C114.7 167.04 114.64 166.85 114.59 166.68C114.48 166.34 114.4 165.99 114.35 165.64C114.3 165.31 114.28 164.99 114.27 164.66C114.27 164.33 114.29 163.99 114.32 163.74C114.39 163.21 114.53 162.64 114.66 162.29C114.72 162.09 114.8 161.89 114.88 161.7C114.96 161.53 115.02 161.4 115.1 161.25L115.33 160.83L115.54 160.5C115.67 160.29 115.83 160.07 115.95 159.93C116.48 159.26 116.89 158.9 117.29 158.55C117.69 158.21 118.04 157.95 118.38 157.71C119.71 156.79 120.84 156.22 121.98 155.65C124.23 154.58 126.39 153.74 128.57 152.98C132.91 151.46 137.22 150.25 141.7 149.33L144.2 155.79C140.5 158.09 136.69 160.3 133.07 162.52C131.75 163.34 130.44 164.16 129.22 164.98C129.39 165.14 129.57 165.3 129.75 165.46C131.18 166.72 132.79 167.98 134.42 169.24C137.68 171.74 141.22 174.26 144.53 176.68Z" fill="#2063AF"/>
<path d="M170.391 154.984C170.391 154.984 172.608 158.388 174.579 159.845C173.66 161.137 171.631 161.048 171.631 161.048L170.391 154.984Z" fill="#FF5652"/>
<path d="M166.793 150.796C166.7 150.796 166.606 150.762 166.532 150.694C166.376 150.55 166.366 150.307 166.51 150.15C167.952 148.585 169.705 148.86 169.781 148.873C169.991 148.909 170.132 149.107 170.096 149.316C170.06 149.525 169.859 149.665 169.654 149.632C169.596 149.623 168.225 149.423 167.075 150.672C167 150.755 166.897 150.796 166.793 150.796Z" fill="#263238"/>
<path d="M152.867 160.343C151.59 166.261 148.357 176.721 142.973 178.72C142.973 178.72 142.084 184.898 152.226 189.259C163.378 194.054 159.936 186.015 159.936 186.015C154.475 181.944 156.574 177.496 159.457 173.712L152.867 160.343Z" fill="#FF8B7B"/>
<path d="M144.527 173.544C144.527 173.544 148.375 170.625 149.937 170.75C151.499 170.875 158.33 175.31 158.33 175.31L158.385 177.466L144.527 173.544Z" fill="#2063AF"/>
<path d="M148.189 156.898C150.285 164.68 151.117 169.342 155.925 172.573C163.158 177.433 172.148 171.833 172.419 163.581C172.663 156.153 169.194 144.674 160.837 143.116C152.604 141.581 146.092 149.115 148.189 156.898Z" fill="#FF8B7B"/>
<path d="M168.852 145.141C165.686 151.734 169.08 153.21 168.39 155.899C167.7 158.588 164.52 153.479 163.362 160.004C162.204 166.529 154.221 169.639 154.221 169.639C152.064 168.224 149.983 168.826 149.983 168.826C129.63 153.29 144.535 146.614 144.535 146.614C144.535 146.614 144.599 143.173 149.114 141.124C154.24 138.798 154.173 141.258 159.368 139.55C164.563 137.843 169.719 134.172 171.768 138.687C172.902 141.185 168.852 145.141 168.852 145.141Z" fill="#263238"/>
<path d="M161.435 157.207C161.967 159.25 163.312 161.005 164.718 162.049C166.833 163.619 168.41 162.069 168.257 159.677C168.119 157.525 166.852 154.114 164.52 153.479C162.223 152.854 160.826 154.872 161.435 157.207Z" fill="#FF8B7B"/>
<path d="M170.39 263.38C149.17 281.74 115.77 263.38 115.77 263.38C119.84 213.28 122.05 187.39 128.69 178.26C131.49 174.4 135.96 172.56 141.65 173.18C160.91 175.28 167.46 182.42 169.12 190.57C169.37 191.81 169.5 193.07 169.56 194.34C169.83 200.87 167.82 207.65 167.29 212.73C166.09 224.15 170.39 263.38 170.39 263.38Z" fill="#2063AF"/>
<path opacity="0.2" d="M169.56 194.34C165.97 193.46 162.17 192.11 162.17 192.11L169.12 190.57C169.37 191.81 169.5 193.07 169.56 194.34Z" fill="black"/>
<path d="M202.22 171.3C202.25 172.08 202.18 172.83 202.03 173.5C201.72 174.84 201.19 175.81 200.71 176.57C199.71 178.08 198.75 178.96 197.85 179.75C196.95 180.52 196.08 181.15 195.23 181.71C193.54 182.85 191.87 183.73 190.21 184.54C186.9 186.17 183.59 187.43 180.22 188.53C176.85 189.61 173.44 190.51 169.89 191.16C168.12 191.5 166.31 191.74 164.44 191.92C162.55 192.09 160.61 192.19 158.39 192.01L159.25 178.04C160.32 178.05 161.69 177.98 163.08 177.85C164.49 177.7 165.95 177.47 167.43 177.23C170.38 176.73 173.4 176.09 176.36 175.33C179.33 174.57 182.27 173.68 185.01 172.66C186.37 172.15 187.68 171.58 188.81 171.02C189.01 170.92 189.2 170.82 189.38 170.72C188.96 170.25 188.48 169.75 187.99 169.27C185.89 167.17 183.45 165.09 180.97 163.08C176 159.04 170.72 155.1 165.47 151.28L169 145.32C175.06 148.3 180.89 151.5 186.67 155.12C189.54 156.96 192.4 158.85 195.23 161.14C196.65 162.31 198.06 163.51 199.55 165.26C199.92 165.72 200.3 166.19 200.69 166.82C201.08 167.45 201.49 168.14 201.84 169.23C201.93 169.52 202.01 169.83 202.07 170.14C202.14 170.5 202.19 170.91 202.22 171.3Z" fill="#2063AF"/>
<path d="M168.852 145.623C168.852 145.623 166.989 142.786 165.286 141.651C163.584 140.516 161.8 140.09 159.206 140.09C156.612 140.09 156.024 143.799 157.321 144.528C158.618 145.258 159.299 147.165 160.11 147.993C160.921 148.821 164.632 151.759 165.853 151.215C167.075 150.673 168.852 145.623 168.852 145.623Z" fill="#FF8B7B"/>
<path d="M144.705 145.704C144.705 145.704 144.826 148.099 144.005 150.619C143.273 152.869 140.669 155.009 139.494 155.24C138.318 155.471 138.384 152.507 139.739 149.295C141.458 145.221 144.705 145.704 144.705 145.704Z" fill="#FF8B7B"/>
<path d="M166.081 150.821C166.081 150.821 162.859 151.551 160.913 150.821C158.968 150.091 157.539 149.453 158.816 148.967C160.093 148.481 163.12 148.693 163.12 148.693L166.081 150.821Z" fill="#FF8B7B"/>
</svg>
