<?xml version="1.0" encoding="UTF-8"?>
<svg version="1.1" viewBox="0 0 1796 1204" width="449" height="301" xmlns="http://www.w3.org/2000/svg">
<path transform="translate(759,97)" d="m0 0h11l10 4 16 13 19 14 10 8 17 13 18 14 13 10 8 7 3 5 1 4v14l-3 7-5 6-16 12-36 28-13 10-16 12-14 11-10 5-3 1h-8l-11-4-7-6-5-9-2-10v-20l-214 1-15 3-15 6-10 6-10 8-9 8-10 13-9 17-4 14-4 20 1 15 5 22 7 16 13 18 8 8 13 9 17 9 16 5 8 1 413 1 19 1 28 5 18 5 16 6 22 11 12 8 14 11 10 9 11 11 11 14 10 15 9 17 10 26 5 21 4 25v27l-3 22-3 15-9 27-11 23-12 18-9 11-12 13-12 12-19 14-21 12-23 10-24 7-5 4-7 11-6 7-8 7-7 6-14 8-24 8-18 2h-9l-15-2-18-6-14-7-12-9-6-5v-2l-4-2-8-10-7-12-8-19-2-11v-28l2-12 8-18 9-15 7-7 5-6 8-7 14-9 14-6 15-4 8-1h21l14 2 15 5 14 7 13 10 10 10 5 7 8-1 14-7 8-6 7-6 7-8 11-16 6-12 4-15 2-12v-14l-3-17-3-11-6-15-8-12-12-14-13-10-12-7-13-5-14-3-60-1h-345l-42-3-27-6-22-8-22-11-12-8-16-12-10-9-11-11-13-17-9-14-8-15-10-26-4-14-4-28v-36l4-29 7-22 5-13 8-16 11-17 12-16 23-23 14-10 18-11 21-10 21-7 22-5 34-3h200l1-27 6-12 8-7z" fill="#1F314F"/>
<path transform="translate(434,696)" d="m0 0 17 1 16 4 16 7 10 6 10 8 8 8 9 12 4 4h60l2-4 1-24 3-8 7-8 10-5h15l10 5 12 10 12 9 21 16 15 12 19 14 11 9 8 7 5 9 1 3v9l-3 8-6 8-11 9-16 12-17 13-18 14-17 13-18 14-9 4h-13l-8-3-8-7-4-8-1-4-1-25-1-2h-64l-2 5-9 11-5 6h-2l-1 3-14 10-17 8-16 5-7 1h-27l-16-4-16-7-10-6-10-9-13-13-9-14-7-17-4-19v-19l4-20 6-15 9-15 12-13 10-9 13-8 11-5 13-4 5-1z" fill="#A4ABB6"/>
<path transform="translate(1033,95)" d="m0 0 19 2 15 4 13 5 11 7 14 11 7 7 9 12 8 15 5 17 2 13v13l-2 15-4 14-5 12-7 11-8 10-12 11-15 10-15 6-18 5-7 1h-16l-18-4-16-6-14-8-12-11-13-13-8-14-7-18-4-22v-9l4-20 5-15 9-17 14-15 9-8 11-7 12-6 20-6z" fill="#A4ABB6"/>
<path transform="translate(793,759)" d="m0 0 1 3-4 17-1 6v26l3 10 2 8-1 4-5-12-2-11v-28l2-12z" fill="#A4ABB6"/>
<path transform="translate(336,328)" d="m0 0h1l1 33 3 21 3 11 4 17 3 8-1 4-6-16-4-14-4-28z" fill="#A5ACB7"/>
<path transform="translate(351,267)" d="m0 0 1 4-7 22-7 35h-1v-9l3-20 7-22z" fill="#A4ABB6"/>
<path transform="translate(1032,619)" d="m0 0 2 1 3 14 2 13-3 20-3 7-1-3 3-16v-14l-3-17z" fill="#A4ABB6"/>
<path transform="translate(793,759)" d="m0 0 1 3-4 17-1 3h-2l1-12z" fill="#A5ACB7"/>
<path transform="translate(787,811)" d="m0 0h2l3 10 2 8-1 4-5-12z" fill="#A5ACB7"/>
<path transform="translate(340,386)" d="m0 0h2l2 7v6h-2l-2-7z" fill="#A6ADB8"/>
</svg>
